<svg width="15" height="15" viewBox="0 0 15 15" fill="none" xmlns="http://www.w3.org/2000/svg">
<path fill-rule="evenodd" clip-rule="evenodd" d="M10.1283 9.70008C9.17709 10.8605 7.75061 11.5939 6.16775 11.5939C3.33312 11.5939 1 9.24201 1 6.29694C1 3.35188 3.33312 1 6.16775 1C9.00238 1 11.3355 3.35188 11.3355 6.29694C11.3355 7.49656 10.9484 8.59775 10.298 9.48167C10.2774 9.49671 10.2577 9.51352 10.2392 9.53209C10.1896 9.58161 10.1527 9.63892 10.1283 9.70008ZM10.6367 10.6368C9.51318 11.8424 7.92642 12.5939 6.16775 12.5939C2.7614 12.5939 0 9.77465 0 6.29694C0 2.81924 2.7614 0 6.16775 0C9.57411 0 12.3355 2.81924 12.3355 6.29694C12.3355 7.61418 11.9393 8.83696 11.262 9.84785L14.6328 13.2186C14.828 13.4138 14.828 13.7304 14.6328 13.9257C14.4375 14.1209 14.1209 14.1209 13.9256 13.9257L10.6367 10.6368Z" fill="black" fill-opacity="0.57"/>
</svg>
